<svg width="21" height="21" viewBox="0 0 21 21" fill="none" xmlns="http://www.w3.org/2000/svg">
    <path fill-rule="evenodd" clip-rule="evenodd" d="M15.552 20.1335C14.112 20.0805 10.031 19.5165 5.757 15.2435C1.484 10.9695 0.921 6.88946 0.867 5.44846C0.787 3.25246 2.469 1.11946 4.412 0.28646C4.64598 0.185427 4.9022 0.14696 5.15553 0.174835C5.40886 0.20271 5.65059 0.295969 5.857 0.44546C7.457 1.61146 8.561 3.37546 9.509 4.76246C9.71758 5.06719 9.80677 5.43801 9.75956 5.80426C9.71235 6.17051 9.53204 6.50659 9.253 6.74846L7.302 8.19746C7.20774 8.26552 7.14139 8.36549 7.11528 8.47878C7.08916 8.59208 7.10505 8.711 7.16 8.81346C7.602 9.61646 8.388 10.8125 9.288 11.7125C10.188 12.6125 11.441 13.4505 12.3 13.9425C12.4077 14.0029 12.5345 14.0198 12.6543 13.9897C12.774 13.9596 12.8777 13.8847 12.944 13.7805L14.214 11.8475C14.4475 11.5373 14.7919 11.3295 15.1752 11.2676C15.5584 11.2058 15.9508 11.2946 16.27 11.5155C17.677 12.4895 19.319 13.5745 20.521 15.1135C20.6826 15.3214 20.7854 15.5689 20.8187 15.8301C20.8519 16.0913 20.8144 16.3567 20.71 16.5985C19.873 18.5515 17.755 20.2145 15.552 20.1335Z" fill="#3F80D0"/>
</svg>
