<svg width="144" height="56" viewBox="0 0 144 56" fill="none" xmlns="http://www.w3.org/2000/svg">
    <path d="M62.552 0.5H47.205V55.5H84.2305V43.2915H62.552V0.5Z" fill="black"/>
    <path d="M134.822 8.62621C128.615 3.21016 120.27 0.5 109.792 0.5H72.496V12.8108H94.4454L109.792 12.896C114.937 12.896 119.143 14.1062 122.412 16.5223C126.047 19.2154 127.849 23.025 127.819 27.9553C127.789 34.7818 124.954 39.4308 119.315 41.9109C116.696 43.0444 113.522 43.6111 109.792 43.6111V21.9341H94.4454V55.5H109.792C119.036 55.5 126.804 53.3268 133.088 48.9803C140.237 44.0202 143.781 37.134 143.721 28.3217C143.691 20.3319 140.723 13.7695 134.826 8.62621H134.822Z" fill="black"/>
    <path d="M0.137641 0.5H0V0.529829V0.559658V55.5H0.137641H15.4846H15.5147V34.0574H37.0039H37.1631H37.3007V21.9298H37.0039V21.9852H15.5147V13.271V12.8449H37.3007V0.5H0.193558H0.137641Z" fill="black"/>
</svg>
